# xmcd
#
# Track frame offsets:
#	150
#	14568
#	29361
#	45311
#	59037
#	76920
#	91257
#	110454
#	128211
#	148998
#	167965
#	186391
#	201505
#
# Disc length: 2866 seconds
#
# Revision: 1
# Processed by: cddbd v1.5.1PL2 Copyright (c) Steve Scherf et al.
# Submitted via: audiograbber 1.83.01
#
DISCID=bf0b300d
DTITLE=Hooverville - Follow That Trail Of Dust Back Home
DYEAR=2005
DGENRE=Country Rock
TTITLE0=Carrying This Heartache
TTITLE1=Another Sweet Dawn
TTITLE2=Rain Song
TTITLE3=Honey
TTITLE4=Dirt Road
TTITLE5=Oh, Kentucky!
TTITLE6=County Fairgrounds
TTITLE7=Blue Sedan
TTITLE8=Wildwood Rambler
TTITLE9=Running
TTITLE10=Not Forgotten
TTITLE11=Jefferson Davis Blues
TTITLE12=Old, Old River
EXTD=
EXTT0=
EXTT1=
EXTT2=
EXTT3=
EXTT4=
EXTT5=
EXTT6=
EXTT7=
EXTT8=
EXTT9=
EXTT10=
EXTT11=
EXTT12=
PLAYORDER=
